<?xml version="1.0" standalone="no"?>
<!DOCTYPE svg PUBLIC "-//W3C//DTD SVG 20010904//EN"
 "http://www.w3.org/TR/2001/REC-SVG-20010904/DTD/svg10.dtd">
<svg version="1.0" xmlns="http://www.w3.org/2000/svg"
 width="820.000000pt" height="930.000000pt" viewBox="0 0 820.000000 930.000000"
 preserveAspectRatio="xMidYMid meet">

<g transform="translate(0.000000,930.000000) scale(0.100000,-0.100000)"
fill="#000000" stroke="none">
<path d="M10 9281 c0 -10 4 -63 10 -117 5 -55 35 -382 65 -729 30 -346 77
-877 105 -1180 27 -302 65 -734 85 -960 20 -225 62 -707 95 -1070 33 -363 71
-793 85 -955 14 -162 57 -641 95 -1065 38 -423 81 -903 95 -1065 35 -410 106
-1195 109 -1197 2 -3 320 -93 1386 -393 217 -61 528 -149 690 -195 303 -86
716 -202 1062 -299 l197 -56 338 94 c186 52 500 140 698 196 198 56 479 134
625 175 146 40 452 126 680 191 228 64 528 148 665 186 357 99 355 98 355 113
0 8 13 160 30 337 16 178 45 508 65 733 19 226 64 732 100 1125 36 393 76 848
90 1010 14 162 54 617 90 1010 35 393 74 823 85 955 11 132 61 690 110 1240
111 1245 170 1908 170 1923 0 9 -998 12 -4090 12 -4007 0 -4090 0 -4090 -19z
m6655 -1728 c-3 -21 -23 -245 -45 -498 -22 -253 -42 -466 -45 -472 -3 -10
-405 -13 -1961 -13 l-1957 0 6 -62 c4 -35 16 -184 28 -333 11 -148 28 -355 37
-460 l17 -190 1870 -5 1870 -5 -2 -30 c-14 -157 -79 -875 -148 -1625 -46 -503
-96 -1045 -110 -1205 -15 -159 -30 -293 -33 -296 -4 -3 -54 -18 -112 -33 -58
-15 -224 -60 -370 -101 -146 -41 -422 -117 -615 -170 -192 -53 -495 -137 -672
-186 -177 -49 -327 -89 -335 -89 -7 0 -141 36 -298 80 -157 44 -359 100 -450
125 -147 40 -482 133 -1138 314 -117 32 -215 61 -217 62 -1 2 -17 191 -34 419
-18 228 -43 546 -56 705 -13 160 -27 336 -31 393 l-7 102 501 0 c363 0 503 -3
508 -11 6 -10 73 -695 74 -759 0 -14 4 -31 9 -38 4 -8 109 -41 232 -74 123
-33 377 -102 563 -153 l340 -92 125 32 c69 18 203 54 296 80 94 26 270 73 392
105 352 93 332 86 337 123 7 40 39 375 101 1042 8 88 18 181 21 208 l6 47
-1781 0 c-1690 0 -1781 1 -1781 18 0 21 -63 739 -130 1492 -27 305 -68 767
-90 1025 -22 259 -42 491 -46 518 l-6 47 2571 0 2571 0 -5 -37z"/>
</g>
</svg>
